<svg xmlns="http://www.w3.org/2000/svg" version="1.1" xmlns:xlink="http://www.w3.org/1999/xlink" xmlns:svgjs="http://svgjs.dev/svgjs" width="1440" height="560" preserveAspectRatio="none" viewBox="0 0 1440 560"><g mask="url(&quot;#SvgjsMask1088&quot;)" fill="none"><rect width="1440" height="560" x="0" y="0" fill="rgba(10, 9, 10, 1)"></rect><path d="M491 322L490 -24" stroke-width="8" stroke="url(&quot;#SvgjsLinearGradient1089&quot;)" stroke-linecap="round" class="Up"></path><path d="M651 182L650 513" stroke-width="6" stroke="url(&quot;#SvgjsLinearGradient1090&quot;)" stroke-linecap="round" class="Down"></path><path d="M827 190L826 396" stroke-width="8" stroke="url(&quot;#SvgjsLinearGradient1091&quot;)" stroke-linecap="round" class="Up"></path><path d="M1396 282L1395 -61" stroke-width="8" stroke="url(&quot;#SvgjsLinearGradient1089&quot;)" stroke-linecap="round" class="Up"></path><path d="M1222 446L1221 260" stroke-width="8" stroke="url(&quot;#SvgjsLinearGradient1089&quot;)" stroke-linecap="round" class="Up"></path><path d="M490 298L489 -44" stroke-width="6" stroke="url(&quot;#SvgjsLinearGradient1090&quot;)" stroke-linecap="round" class="Down"></path><path d="M608 292L607 -60" stroke-width="6" stroke="url(&quot;#SvgjsLinearGradient1091&quot;)" stroke-linecap="round" class="Up"></path><path d="M782 1L781 -309" stroke-width="10" stroke="url(&quot;#SvgjsLinearGradient1089&quot;)" stroke-linecap="round" class="Up"></path><path d="M648 45L647 381" stroke-width="10" stroke="url(&quot;#SvgjsLinearGradient1092&quot;)" stroke-linecap="round" class="Down"></path><path d="M434 340L433 678" stroke-width="6" stroke="url(&quot;#SvgjsLinearGradient1089&quot;)" stroke-linecap="round" class="Up"></path><path d="M403 237L402 -29" stroke-width="8" stroke="url(&quot;#SvgjsLinearGradient1092&quot;)" stroke-linecap="round" class="Down"></path><path d="M515 110L514 308" stroke-width="6" stroke="url(&quot;#SvgjsLinearGradient1090&quot;)" stroke-linecap="round" class="Down"></path><path d="M839 451L838 108" stroke-width="6" stroke="url(&quot;#SvgjsLinearGradient1092&quot;)" stroke-linecap="round" class="Down"></path><path d="M1250 55L1249 298" stroke-width="6" stroke="url(&quot;#SvgjsLinearGradient1091&quot;)" stroke-linecap="round" class="Up"></path><path d="M747 457L746 795" stroke-width="6" stroke="url(&quot;#SvgjsLinearGradient1091&quot;)" stroke-linecap="round" class="Up"></path><path d="M859 395L858 540" stroke-width="8" stroke="url(&quot;#SvgjsLinearGradient1091&quot;)" stroke-linecap="round" class="Up"></path><path d="M952 540L951 694" stroke-width="10" stroke="url(&quot;#SvgjsLinearGradient1091&quot;)" stroke-linecap="round" class="Up"></path><path d="M786 423L785 580" stroke-width="8" stroke="url(&quot;#SvgjsLinearGradient1092&quot;)" stroke-linecap="round" class="Down"></path><path d="M701 102L700 246" stroke-width="6" stroke="url(&quot;#SvgjsLinearGradient1092&quot;)" stroke-linecap="round" class="Down"></path><path d="M1377 55L1376 -257" stroke-width="10" stroke="url(&quot;#SvgjsLinearGradient1090&quot;)" stroke-linecap="round" class="Down"></path><path d="M557 409L556 182" stroke-width="6" stroke="url(&quot;#SvgjsLinearGradient1091&quot;)" stroke-linecap="round" class="Up"></path><path d="M763 312L762 34" stroke-width="6" stroke="url(&quot;#SvgjsLinearGradient1092&quot;)" stroke-linecap="round" class="Down"></path><path d="M1329 141L1328 533" stroke-width="10" stroke="url(&quot;#SvgjsLinearGradient1092&quot;)" stroke-linecap="round" class="Down"></path><path d="M652 52L651 287" stroke-width="8" stroke="url(&quot;#SvgjsLinearGradient1091&quot;)" stroke-linecap="round" class="Up"></path><path d="M620 133L619 -189" stroke-width="8" stroke="url(&quot;#SvgjsLinearGradient1092&quot;)" stroke-linecap="round" class="Down"></path><path d="M1063 540L1062 945" stroke-width="8" stroke="url(&quot;#SvgjsLinearGradient1092&quot;)" stroke-linecap="round" class="Down"></path><path d="M1069 539L1068 829" stroke-width="8" stroke="url(&quot;#SvgjsLinearGradient1089&quot;)" stroke-linecap="round" class="Up"></path><path d="M1039 102L1038 460" stroke-width="8" stroke="url(&quot;#SvgjsLinearGradient1089&quot;)" stroke-linecap="round" class="Up"></path><path d="M718 433L717 597" stroke-width="6" stroke="url(&quot;#SvgjsLinearGradient1092&quot;)" stroke-linecap="round" class="Down"></path><path d="M50 320L49 122" stroke-width="6" stroke="url(&quot;#SvgjsLinearGradient1092&quot;)" stroke-linecap="round" class="Down"></path><path d="M165 246L164 498" stroke-width="6" stroke="url(&quot;#SvgjsLinearGradient1091&quot;)" stroke-linecap="round" class="Up"></path><path d="M41 366L40 1" stroke-width="8" stroke="url(&quot;#SvgjsLinearGradient1091&quot;)" stroke-linecap="round" class="Up"></path><path d="M412 112L411 394" stroke-width="8" stroke="url(&quot;#SvgjsLinearGradient1092&quot;)" stroke-linecap="round" class="Down"></path><path d="M364 90L363 384" stroke-width="10" stroke="url(&quot;#SvgjsLinearGradient1089&quot;)" stroke-linecap="round" class="Up"></path><path d="M527 51L526 -180" stroke-width="6" stroke="url(&quot;#SvgjsLinearGradient1089&quot;)" stroke-linecap="round" class="Up"></path><path d="M104 4L103 264" stroke-width="10" stroke="url(&quot;#SvgjsLinearGradient1090&quot;)" stroke-linecap="round" class="Down"></path></g><defs><mask id="SvgjsMask1088"><rect width="1440" height="560" fill="#ffffff"></rect></mask><linearGradient x1="0%" y1="100%" x2="0%" y2="0%" id="SvgjsLinearGradient1089"><stop stop-color="rgba(49, 31, 0, 0)" offset="0"></stop><stop stop-color="rgba(49, 31, 0, 1)" offset="1"></stop></linearGradient><linearGradient x1="0%" y1="0%" x2="0%" y2="100%" id="SvgjsLinearGradient1090"><stop stop-color="rgba(49, 31, 0, 0)" offset="0"></stop><stop stop-color="rgba(49, 31, 0, 1)" offset="1"></stop></linearGradient><linearGradient x1="0%" y1="100%" x2="0%" y2="0%" id="SvgjsLinearGradient1091"><stop stop-color="rgba(59, 37, 0, 0)" offset="0"></stop><stop stop-color="rgba(59, 37, 0, 1)" offset="1"></stop></linearGradient><linearGradient x1="0%" y1="0%" x2="0%" y2="100%" id="SvgjsLinearGradient1092"><stop stop-color="rgba(59, 37, 0, 0)" offset="0"></stop><stop stop-color="rgba(59, 37, 0, 1)" offset="1"></stop></linearGradient></defs></svg>